<?xml version="1.0" standalone="no"?>
<!DOCTYPE svg PUBLIC "-//W3C//DTD SVG 20010904//EN"
 "http://www.w3.org/TR/2001/REC-SVG-20010904/DTD/svg10.dtd">
<svg version="1.0" xmlns="http://www.w3.org/2000/svg"
 width="512.000000pt" height="512.000000pt" viewBox="0 0 512.000000 512.000000"
 preserveAspectRatio="xMidYMid meet">
<metadata>
Created by potrace 1.14, written by Peter Selinger 2001-2017
</metadata>
<g transform="translate(0.000000,512.000000) scale(0.100000,-0.100000)"
fill="#000000" stroke="none">
<path d="M800 4404 c-152 -32 -301 -137 -377 -265 -38 -65 -410 -1261 -419
-1349 -15 -139 45 -281 172 -408 l83 -84 3 -526 3 -527 28 -81 c69 -204 232
-366 442 -441 l80 -28 1745 0 1745 0 80 28 c210 75 373 237 442 441 l28 81 3
527 3 526 83 84 c127 127 187 269 172 408 -5 52 -372 1265 -397 1313 -79 153
-230 266 -401 301 -112 23 -147 21 -386 -28 -927 -189 -1803 -190 -2736 -1
-238 48 -292 52 -396 29z m326 -169 c91 -19 167 -35 169 -35 2 0 -3 -28 -11
-62 -77 -332 -426 -525 -746 -414 -39 14 -75 29 -80 34 -11 11 56 230 92 302
48 95 129 162 235 196 69 22 165 16 341 -21z m3177 20 c79 -21 131 -49 189
-103 68 -63 94 -112 140 -260 45 -147 49 -136 -65 -173 -102 -34 -243 -34
-345 0 -173 57 -318 199 -371 364 -36 115 -36 115 28 128 31 6 103 21 161 34
125 28 186 30 263 10z m-2727 -100 c368 -56 867 -82 1237 -66 254 12 548 38
731 66 134 20 136 20 136 -11 0 -14 12 -60 26 -102 116 -349 476 -560 831
-486 42 8 98 24 126 35 27 11 52 18 54 15 6 -6 112 -350 109 -353 -2 -2 -38
-12 -82 -24 -169 -44 -331 -150 -418 -272 -59 -83 -81 -129 -112 -234 -36
-120 -39 -295 -6 -393 11 -35 20 -66 18 -67 -2 -2 -63 -14 -137 -27 -857 -153
-1749 -175 -2629 -65 -177 22 -558 84 -567 92 -2 3 3 26 11 51 40 117 44 272
11 401 -67 261 -318 491 -578 530 -43 7 -47 9 -41 29 4 11 29 90 55 174 26 85
50 156 53 159 3 3 27 -3 53 -15 26 -11 83 -27 125 -36 357 -74 716 136 832
486 14 42 26 88 26 102 0 31 2 31 136 11z m-1189 -1080 c181 -57 319 -197 375
-380 34 -110 29 -259 -14 -367 -14 -37 -33 -36 -161 6 -248 81 -378 184 -421
335 -23 80 -21 100 31 274 l46 157 33 0 c18 0 68 -11 111 -25z m4536 -132 c26
-87 47 -172 47 -189 0 -48 -29 -134 -62 -187 -74 -116 -238 -207 -466 -261
l-61 -14 -23 66 c-28 83 -30 215 -4 312 54 201 206 350 419 411 107 31 97 40
150 -138z m-4173 -816 c269 -63 587 -111 930 -142 593 -53 1394 -45 1970 20
359 41 868 144 1043 210 14 6 17 2 17 -23 0 -98 -60 -244 -134 -328 -56 -63
-139 -120 -226 -154 l-65 -25 -1680 -3 c-1194 -2 -1699 0 -1745 8 -237 41
-419 232 -446 469 l-6 59 93 -28 c52 -15 164 -44 249 -63z m-227 -452 c83 -63
163 -102 255 -126 73 -18 128 -19 1782 -19 1655 0 1709 1 1782 19 124 32 223
89 316 181 58 59 61 55 41 -42 -41 -200 -217 -376 -417 -417 -37 -8 -480 -11
-1466 -11 l-1413 0 -27 -21 c-46 -36 -32 -108 26 -128 24 -9 406 -10 1443 -6
1539 7 1486 5 1613 65 80 38 138 78 201 139 56 55 59 52 40 -41 -36 -176 -169
-327 -349 -398 l-65 -25 -1680 -3 c-1222 -2 -1699 0 -1748 9 -42 7 -101 27
-149 51 -160 80 -269 230 -292 404 l-7 51 67 -64 c75 -71 206 -142 308 -168
32 -8 111 -18 175 -21 166 -10 211 8 211 84 0 56 -25 66 -189 73 -119 5 -158
11 -211 31 -137 50 -244 146 -305 273 -32 67 -55 151 -55 198 0 20 2 19 25
-10 14 -17 53 -53 88 -78z"/>
<path d="M2375 3903 c-583 -51 -1040 -298 -1165 -630 -28 -73 -37 -193 -21
-275 38 -198 214 -389 481 -523 243 -122 550 -187 885 -187 260 -1 473 31 686
102 378 126 642 358 690 608 45 237 -73 463 -336 638 -102 69 -145 71 -170 11
-19 -47 -3 -77 66 -121 211 -136 309 -287 297 -456 -8 -106 -50 -186 -151
-284 -228 -223 -616 -349 -1077 -349 -459 0 -850 127 -1077 349 -105 102 -145
180 -151 293 -3 59 1 89 17 134 85 243 410 439 857 518 108 19 165 23 349 23
238 0 332 -11 533 -60 104 -26 112 -26 135 -11 33 21 44 70 23 102 -19 29 -97
54 -261 84 -189 35 -437 49 -610 34z"/>
<path d="M1884 3279 c-44 -13 -94 -61 -94 -92 0 -63 70 -97 126 -60 24 15 27
15 54 0 60 -36 120 -8 120 56 0 74 -109 124 -206 96z"/>
<path d="M3110 3274 c-54 -23 -80 -53 -80 -91 0 -64 60 -92 120 -56 27 15 30
15 54 0 38 -26 81 -22 105 9 30 38 26 71 -10 105 -51 47 -126 61 -189 33z"/>
<path d="M2408 3185 c-58 -32 -41 -109 36 -163 34 -24 49 -27 116 -27 67 0 82
3 116 27 79 55 95 132 33 163 -35 19 -69 11 -100 -21 -29 -31 -66 -31 -98 0
-34 32 -70 39 -103 21z"/>
</g>
</svg>
